<svg width="198" height="40" viewBox="0 0 198 40" fill="none" xmlns="http://www.w3.org/2000/svg">
<path fill-rule="evenodd" clip-rule="evenodd" d="M32.8558 3.9196C33.9188 5.09213 34.6829 6.39866 35.1812 7.9062C35.6796 9.38023 35.9121 10.9548 35.9121 12.5628C35.9121 14.1374 35.6796 15.6784 35.1812 17.1859C34.7161 18.6935 33.9188 20.0335 32.8558 21.206C31.7927 22.3786 30.3974 23.3166 28.7031 24.0201C27.0088 24.7236 24.9491 25.0921 22.524 25.0921H13.5542V39.1625H5.0164V25.1256H0V18.4255H5.0164V6.70017H0V0H22.4907C24.9159 0 26.9756 0.368509 28.7031 1.10553C30.3974 1.80905 31.7927 2.74707 32.8558 3.9196ZM25.381 17.3199C26.0786 16.9179 26.6102 16.3149 27.0421 15.5444C27.4407 14.8074 27.6733 13.8023 27.6733 12.5628C27.6733 11.3233 27.4739 10.3183 27.0421 9.54774C26.6102 8.77722 26.0786 8.20771 25.381 7.77219C24.6833 7.37018 23.886 7.06868 22.9891 6.93467C22.0921 6.76717 21.1287 6.70017 20.1653 6.70017H13.521V18.392H20.1653C21.1287 18.392 22.0921 18.2915 22.9891 18.1575C23.886 18.0235 24.6833 17.7554 25.381 17.3199Z" fill="#8FA63C"/>
<path fill-rule="evenodd" clip-rule="evenodd" d="M71.0934 39.129L56.5757 0H47.8053L33.1548 39.129H41.7258L44.7822 30.4188H59.2998L62.2233 39.129H71.0934ZM52.1573 9.64824L57.0408 23.9866H47.008L52.0576 9.64824H52.1573Z" fill="#8FA63C"/>
<path fill-rule="evenodd" clip-rule="evenodd" d="M102.056 3.9196C103.119 5.09213 103.883 6.39866 104.381 7.9062C104.846 9.38023 105.112 10.9548 105.079 12.5628C105.079 14.1374 104.846 15.6784 104.348 17.1859C103.883 18.6935 103.085 20.0335 102.022 21.206C101.15 22.1684 100.053 22.9728 98.7516 23.6192L105.843 39.129H96.9727L94.0492 32.0268L90.8331 25.0921H82.7208V39.1625H74.4487V0H91.6905C94.1156 0 96.1754 0.368509 97.9029 1.10553C99.5971 1.80905 100.992 2.74707 102.056 3.9196ZM94.5475 17.3199C95.2452 16.9179 95.7767 16.3149 96.2086 15.5444C96.6405 14.8074 96.8398 13.8023 96.8398 12.5628C96.8398 11.3233 96.6405 10.3183 96.2086 9.54774C95.7767 8.77722 95.2452 8.20771 94.5475 7.77219C93.8499 7.37018 93.0526 7.06868 92.1556 6.93467C91.2586 6.76717 90.2952 6.70017 89.3318 6.70017H82.6876V18.392H89.3318C90.2952 18.392 91.2586 18.2915 92.1556 18.1575C93.0526 18.0235 93.8499 17.7554 94.5475 17.3199ZM91.0716 25.0921L91.8234 26.8342L91.0876 25.0921H91.0716Z" fill="#8FA63C"/>
<path d="M120.028 0.0670058H111.49V8.14071H120.028V0.0670058Z" fill="#8FA63C"/>
<path d="M120.028 11.9933H111.49V39.129H120.028V11.9933Z" fill="#8FA63C"/>
<path fill-rule="evenodd" clip-rule="evenodd" d="M145.775 0C147.635 0 149.296 0.167504 150.824 0.502513C152.352 0.837521 153.648 1.37353 154.744 2.11055C155.841 2.84757 156.671 3.8526 157.269 5.09213C157.867 6.33166 158.166 7.8727 158.166 9.68174C158.166 11.6583 157.734 13.2998 156.837 14.6064C155.94 15.9129 154.645 16.9849 152.884 17.8224C155.276 18.526 157.07 19.732 158.233 21.474C159.395 23.2161 159.993 25.2931 159.993 27.7387C159.993 29.7152 159.628 31.4238 158.864 32.8643C158.1 34.3049 157.07 35.4774 155.807 36.4154C154.512 37.3199 153.05 37.99 151.422 38.459C149.761 38.8945 148.067 39.129 146.339 39.129H127.536V0H145.775ZM145.177 32.4288C146.007 32.4288 146.804 32.3618 147.569 32.1943C148.333 32.0268 148.997 31.7588 149.595 31.3568C150.16 30.9883 150.625 30.4523 150.99 29.7822C151.323 29.1122 151.522 28.2747 151.522 27.2697C151.522 25.2596 150.957 23.8191 149.828 22.9816C148.698 22.1106 147.236 21.7085 145.376 21.7085H136.074V32.4623H145.177V32.4288ZM144.678 15.8459C146.206 15.8459 147.436 15.4774 148.432 14.7404C149.396 14.0034 149.894 12.8308 149.894 11.1893C149.894 10.2848 149.728 9.51424 149.396 8.94472C149.064 8.37521 148.632 7.9062 148.1 7.57119C147.569 7.23618 146.937 7.00168 146.24 6.90117C145.542 6.76717 144.811 6.70017 144.047 6.70017H136.074V15.8459H144.678Z" fill="#8FA63C"/>
<path d="M180.923 40C186.105 40 190.158 38.727 193.082 36.1474C196.005 33.5678 197.467 29.6147 197.5 24.3216V0H188.962V24.3216C188.962 27.2362 188.397 29.3802 187.235 30.7538C186.072 32.1273 183.979 32.7973 180.923 32.7973C179.195 32.7973 177.8 32.5628 176.77 32.0603C175.74 31.5913 174.91 30.9213 174.345 30.1508C173.78 29.3467 173.381 28.4757 173.215 27.4372C173.049 26.4322 172.95 25.3936 172.95 24.3216V0H164.412V24.3551C164.412 29.6817 165.84 33.6348 168.73 36.1809C171.621 38.727 175.674 40 180.923 40Z" fill="#8FA63C"/>
</svg>
