<svg width="101" height="100" viewBox="0 0 101 100" fill="none" xmlns="http://www.w3.org/2000/svg">
<g clip-path="url(#clip0_9079_273955)">
<path d="M0.5 6.4C0.5 4.15979 0.5 3.03968 0.935974 2.18404C1.31947 1.43139 1.93139 0.819467 2.68404 0.435974C3.53968 0 4.65979 0 6.9 0H94.1C96.3402 0 97.4603 0 98.316 0.435974C99.0686 0.819467 99.6805 1.43139 100.064 2.18404C100.5 3.03968 100.5 4.15979 100.5 6.4V93.6C100.5 95.8402 100.5 96.9603 100.064 97.816C99.6805 98.5686 99.0686 99.1805 98.316 99.564C97.4603 100 96.3402 100 94.1 100H6.9C4.65979 100 3.53968 100 2.68404 99.564C1.93139 99.1805 1.31947 98.5686 0.935974 97.816C0.5 96.9603 0.5 95.8402 0.5 93.6V6.4Z" fill="#8FA63C"/>
<mask id="mask0_9079_273955" style="mask-type:alpha" maskUnits="userSpaceOnUse" x="0" y="0" width="101" height="100">
<path d="M0.5 6.4C0.5 4.15979 0.5 3.03968 0.935974 2.18404C1.31947 1.43139 1.93139 0.819467 2.68404 0.435974C3.53968 0 4.65979 0 6.9 0H94.1C96.3402 0 97.4603 0 98.316 0.435974C99.0686 0.819467 99.6805 1.43139 100.064 2.18404C100.5 3.03968 100.5 4.15979 100.5 6.4V93.6C100.5 95.8402 100.5 96.9603 100.064 97.816C99.6805 98.5686 99.0686 99.1805 98.316 99.564C97.4603 100 96.3402 100 94.1 100H6.9C4.65979 100 3.53968 100 2.68404 99.564C1.93139 99.1805 1.31947 98.5686 0.935974 97.816C0.5 96.9603 0.5 95.8402 0.5 93.6V6.4Z" fill="#8FA63C"/>
</mask>
<g mask="url(#mask0_9079_273955)">
<path d="M0.5 100.002H100.503L49.1867 48.6858H45.1556V44.6548L35.5 34.9994V32H32.5006L0.5 -6.10352e-05V100.002Z" fill="#618138"/>
</g>
<path d="M63.4487 44.8471C62.8847 45.8817 62.1343 46.6809 61.2053 47.2493C60.2701 47.8145 59.1907 48.1913 57.9641 48.3891C56.7358 48.5901 55.4606 48.6859 54.1369 48.6859H45.1556V32.8989H54.1369C55.4606 32.8989 56.7358 32.9994 57.9641 33.1941C59.1907 33.3888 60.2701 33.7735 61.2053 34.3371C62.1343 34.9023 62.8832 35.7015 63.4487 36.7362C64.0127 37.7693 64.2947 39.1227 64.2947 40.7932C64.2947 42.4637 64.0127 43.8171 63.4487 44.8471ZM72.5679 34.9337C71.9506 33.0481 70.9637 31.3697 69.6117 29.8986C68.2597 28.4306 66.5051 27.2452 64.3495 26.3455C62.1939 25.4522 59.5761 25 56.5071 25H27.5V32.8974H34.6547V48.6843H27.5V56.5817H34.6547V75H45.1571V56.5817H56.5071C59.5777 56.5817 62.1954 56.1326 64.3495 55.2346C66.5051 54.3381 68.2597 53.1558 69.6117 51.6847C70.9652 50.2151 71.9506 48.5241 72.5679 46.6197C73.1914 44.712 73.5 42.7683 73.5 40.7932C73.5 38.8181 73.1914 36.8162 72.5679 34.9337Z" fill="white"/>
</g>
<defs>
<clipPath id="clip0_9079_273955">
<rect width="100" height="100" fill="white" transform="translate(0.5)"/>
</clipPath>
</defs>
</svg>
